<svg width="34" height="34" viewBox="0 0 34 34" fill="none" xmlns="http://www.w3.org/2000/svg">
<rect x="0.5" y="0.5" width="33" height="33" rx="16.5" fill="#EDEEF3" stroke="white"/>
<mask id="mask0_1_261" style="mask-type:alpha" maskUnits="userSpaceOnUse" x="14" y="14" width="6" height="6">
<rect x="14.6899" y="14.6899" width="4.76069" height="4.76069" rx="2.38035" fill="#D9D9D9"/>
</mask>
<g mask="url(#mask0_1_261)">
<path d="M15.682 19.0537C15.5167 19.0537 15.3762 18.9959 15.2605 18.8802C15.1448 18.7645 15.0869 18.6239 15.0869 18.4586V15.6816C15.0869 15.5163 15.1448 15.3758 15.2605 15.2601C15.3762 15.1443 15.5167 15.0865 15.682 15.0865H18.4591C18.6244 15.0865 18.7649 15.1443 18.8806 15.2601C18.9963 15.3758 19.0542 15.5163 19.0542 15.6816V18.4586C19.0542 18.6239 18.9963 18.7645 18.8806 18.8802C18.7649 18.9959 18.6244 19.0537 18.4591 19.0537H15.682ZM15.682 18.657H18.4591C18.5153 18.657 18.5624 18.638 18.6003 18.5999C18.6384 18.5619 18.6574 18.5148 18.6574 18.4586V15.6816C18.6574 15.6254 18.6384 15.5782 18.6003 15.5401C18.5624 15.5022 18.5153 15.4832 18.4591 15.4832H15.682C15.6258 15.4832 15.5787 15.5022 15.5406 15.5401C15.5026 15.5782 15.4836 15.6254 15.4836 15.6816V18.4586C15.4836 18.5148 15.5026 18.5619 15.5406 18.5999C15.5787 18.638 15.6258 18.657 15.682 18.657ZM16.6754 18.2603C16.382 18.2603 16.2351 17.9055 16.4426 17.6981L16.5067 17.6339C16.5992 17.5415 16.7489 17.5409 16.8421 17.6327C16.9429 17.7322 17.1076 17.7221 17.1956 17.6111L17.2361 17.5601C17.3544 17.4109 17.5808 17.4104 17.6998 17.5591L17.7659 17.6418C17.9653 17.891 17.7878 18.2603 17.4686 18.2603H16.6754ZM16.2771 16.6734C16.168 16.6734 16.0746 16.6345 15.997 16.5567C15.9192 16.4791 15.8804 16.3858 15.8804 16.2767C15.8804 16.1676 15.9192 16.0742 15.997 15.9966C16.0746 15.9188 16.168 15.8799 16.2771 15.8799C16.3862 15.8799 16.4796 15.9188 16.5574 15.9966C16.635 16.0742 16.6738 16.1676 16.6738 16.2767C16.6738 16.3858 16.635 16.4791 16.5574 16.5567C16.4796 16.6345 16.3862 16.6734 16.2771 16.6734Z" fill="#5A6B87"/>
</g>
</svg>
